<!-- Designed by Clark Winkelmann for <https://coupe.robots-ju.ch/> -->
<svg xmlns="http://www.w3.org/2000/svg" version="1.1" viewBox="0 0 394 380"><path d="M44.344,0v33.594h-44.344v346.41h394v-346.41h-44.34v-33.594h-143.25v33.594h-18.82v-33.594h-143.25zm22,20h99.246v33.594h62.82v-33.594h99.25v33.594h44.34v128.82h-350v-128.82h44.344v-33.594zm-0.219,74.375l-4.469,36.625,99.464,12.12,4.44-36.59-99.435-12.155zm261.76,0l-99.44,12.155,4.44,36.59,99.46-12.12-4.46-36.625zm-270.16,102.54c9.526,0,18.027,0.92,25.5,2.81l-1.594,14.06c-6.652-0.41-14.626-0.62-23.906-0.62-6.16,0-10.388,1.96-12.688,5.9-2.217,3.86-3.312,11.14-3.312,21.82,0,10.67,1.095,17.96,3.312,21.9,2.3,3.86,6.529,5.81,12.688,5.81,11.415,0,19.958-0.38,25.625-1.12l1.594,13.94c-7.392,2.3-16.461,3.43-27.219,3.43-13.14,0-22.381-3.27-27.719-9.84s-8-17.95-8-34.12c0-16.18,2.662-27.56,8-34.13s14.579-9.84,27.719-9.84zm66.871,24c11.34,0,19.35,2.48,24.03,7.4,4.77,4.85,7.16,13.09,7.16,24.75s-2.39,19.91-7.16,24.75c-4.68,4.77-12.69,7.16-24.03,7.16-11.41,0-19.48-2.39-24.25-7.16-4.677-4.84-7.028-13.09-7.028-24.75,0-11.74,2.351-20.03,7.028-24.87,4.77-4.85,12.84-7.28,24.25-7.28zm218.6,0c10.1,0,17.39,1.78,21.9,5.31,4.52,3.45,6.83,8.73,6.91,15.87,0,5.67-1.48,9.94-4.44,12.82-2.87,2.79-7.54,4.18-14.03,4.18h-21.94c0.58,4.44,1.89,7.44,3.94,9,2.14,1.48,5.62,2.22,10.47,2.22,6.49,0,14.06-0.44,22.69-1.34l1.72,11.31c-6.33,3.04-15.17,4.56-26.5,4.56-11.42,0-19.53-2.44-24.38-7.37-4.84-4.93-7.28-13.07-7.28-24.41,0-11.91,2.35-20.23,7.03-25,4.76-4.76,12.74-7.15,23.91-7.15zm-61.91,0.12c13.96,0,20.94,10.85,20.94,32.53,0,11.66-1.91,19.82-5.69,24.5-3.69,4.6-9.5,6.91-17.47,6.91-8.21,0-15-1.97-20.34-5.91,0.41,4.19,0.54,8.55,0.37,13.06v14.66h-18.09v-84.16h14.78l1.34,8.88c2.55-3.04,6.04-5.53,10.47-7.5,4.52-1.97,9.09-2.97,13.69-2.97zm-113.31,1.59h18.22v39.94c-0.08,2.63,0.36,4.47,1.34,5.53,0.99,1.07,2.73,1.6,5.19,1.6,3.53,0,8.59-1.67,15.16-5.03v-42.04h18.09v60.76h-14.41l-1.34-8.38c-8.38,6.65-16.75,9.97-25.13,9.97-11.41,0-17.12-5.63-17.12-16.88v-45.47zm175.81,11.6c-4.68,0-7.87,0.95-9.59,2.84-1.73,1.81-2.72,5.48-2.97,11.06h17.25c2.22,0,3.7-0.52,4.44-1.59,0.82-1.07,1.25-2.63,1.25-4.69,0-2.87-0.74-4.83-2.22-5.9-1.48-1.15-4.22-1.72-8.16-1.72zm-219.19,0.37c-4.84,0-8.07,1.23-9.71,3.69-1.65,2.46-2.47,7.39-2.47,14.78,0,7.23,0.82,12.07,2.47,14.53,1.64,2.47,4.87,3.69,9.71,3.69,4.68,0,7.86-1.22,9.5-3.69,1.73-2.46,2.6-7.3,2.6-14.53,0-7.31-0.83-12.19-2.47-14.65-1.64-2.55-4.86-3.82-9.63-3.82zm149.41,0.72c-4.02,0-8.99,1.96-14.91,5.81v27.85c6.41,1.64,10.99,2.44,13.79,2.44,4.02,0,6.8-1.14,8.28-3.44,1.56-2.3,2.31-7.1,2.31-14.41,0-7.14-0.7-11.94-2.09-14.4-1.4-2.55-3.85-3.85-7.38-3.85zm-247,67h25.062c8.475,0,13.754,3.06,15.813,9.22,0.527,1.68,0.781,3.61,0.781,5.78,0,5.03-1.784,8.86-5.375,11.47-0.957,0.64-2.053,1.27-3.25,1.91,3.112,1.38,5.168,3.07,6.125,5.09,0.814,1.92,1.234,5.08,1.282,9.47,0.096,4.93,0.575,8.09,1.437,9.47,0.479,0.69,1.109,1.3,1.875,1.84v1.78h-8.406c-1.054-2.46-1.594-5.51-1.594-9.15l0.094-4.97c0-5.62-1.995-8.85-5.969-9.69-0.91-0.25-1.93-0.37-3.031-0.37h-17.938v24.18h-6.906v-56.03zm92.44,0h6.18v21.22c2.88-4.43,6.91-6.65,12.13-6.65,6.37,0,11.02,2.77,13.94,8.34,1.86,3.45,2.81,7.7,2.81,12.78,0,8.28-2.3,14.4-6.84,18.34-2.83,2.52-6.22,3.78-10.19,3.78-5.32,0-9.47-2.33-12.44-6.96v5.18h-5.59v-56.03zm186.87,0h6.97v42.07c0,6.35-2.25,10.88-6.75,13.59-2.44,1.43-5.32,2.15-8.62,2.15-6.18,0-10.54-2.22-13.13-6.65-1.34-2.32-2.03-5.07-2.03-8.22v-4.87h7.06v3.62c0,5.62,1.97,8.92,5.94,9.91,0.67,0.14,1.44,0.22,2.25,0.21,2.87,0,5.06-1.15,6.59-3.46,1.15-1.73,1.72-4.7,1.72-8.94v-39.41zm18.81,0h6.97v39.31c0,4,1.34,7.09,3.97,9.26,2.64,1.97,5.95,2.96,9.97,2.96,6.18,0,10.36-2.07,12.56-6.22,0.96-1.72,1.44-3.73,1.44-6v-39.31h6.97v39.31c0,6.71-2.58,11.73-7.75,15.04-3.59,2.31-8,3.46-13.22,3.46-8.23,0-14.17-2.6-17.81-7.78-2.06-2.95-3.1-6.53-3.1-10.72v-39.31zm-120.37,4.66h6.25v11.09h6.41v5.25h-6.41v27.57c0,1.97,0.56,3.11,1.66,3.4,0.43,0.15,1.04,0.22,1.81,0.22,1.24,0,2.22-0.08,2.94-0.28v5.37c-1.92,0.35-3.61,0.53-5.1,0.53-4.4,0-6.89-1.73-7.47-5.18-0.04-0.35-0.09-0.75-0.09-1.19v-30.44h-5.22v-5.25h5.22v-11.09zm-170.84,1.62v19.29h16.813c6.032,0,9.496-2.18,10.406-6.57,0.191-0.88,0.281-1.9,0.281-3.03,0-3.35-0.945-5.89-2.812-7.56-1.628-1.43-4.236-2.13-7.875-2.13h-16.813zm60.313,8.29c7.561,0,12.771,3.31,15.591,9.96,1.44,3.31,2.16,7.29,2.16,11.97,0,8.58-2.55,14.69-7.63,18.28-2.77,2.02-6.101,3.03-10.028,3.03-7.182,0-12.281-3.07-15.25-9.18-1.675-3.45-2.5-7.58-2.5-12.41,0-8.92,2.64-15.18,7.907-18.78,2.729-1.92,5.967-2.87,9.75-2.87zm83.031,0c7.57,0,12.77,3.31,15.59,9.96,1.44,3.31,2.16,7.29,2.16,11.97,0,8.58-2.55,14.69-7.62,18.28-2.78,2.02-6.14,3.03-10.07,3.03-7.18,0-12.25-3.07-15.22-9.18-1.67-3.45-2.5-7.58-2.5-12.41,0-8.92,2.64-15.18,7.91-18.78,2.73-1.92,5.97-2.87,9.75-2.87zm60.56,0c7.23,0,11.68,2.57,13.41,7.74,0.53,1.43,0.81,2.99,0.81,4.66h-6.62c-0.15-4.29-2.74-6.44-7.82-6.44-4.07,0-6.69,1.26-7.84,3.72-0.34,0.74-0.5,1.51-0.5,2.35,0,2.26,1.66,3.99,4.97,5.12,0.72,0.25,1.47,0.46,2.28,0.66l5.97,1.4c5.89,1.48,9.41,3.99,10.56,7.53,0.34,1.09,0.5,2.34,0.5,3.72,0,4.88-2.17,8.46-6.53,10.72-2.63,1.38-5.83,2.06-9.56,2.06-9.67,0-14.88-4.17-15.6-12.5-0.04-0.39-0.06-0.8-0.06-1.24h6.6c0.28,2.41,0.9,4.1,1.81,5.09,1.63,1.82,4.2,2.75,7.75,2.75,4.16,0,6.95-1.21,8.34-3.63,0.53-0.83,0.78-1.75,0.78-2.68,0-2.37-1.35-4.02-4.03-5-0.62-0.2-1.28-0.4-2-0.6l-5.81-1.5c-5.94-1.48-9.69-3.51-11.22-6.12-0.81-1.43-1.22-3.25-1.22-5.47,0-4.78,2.09-8.27,6.25-10.44,2.44-1.28,5.38-1.9,8.78-1.9zm-143.5,5.96c-4.644,0-7.913,2.35-9.781,7.04-0.957,2.46-1.437,5.35-1.437,8.65,0,7,1.934,11.72,5.812,14.19,1.532,0.98,3.348,1.5,5.406,1.5,4.501,0,7.708-2.28,9.628-6.81,1.05-2.42,1.56-5.31,1.56-8.66,0-7.44-2.02-12.35-6.094-14.72-1.532-0.79-3.226-1.19-5.094-1.19zm82.998,0c-4.64,0-7.88,2.35-9.75,7.04-0.96,2.46-1.44,5.35-1.44,8.65,0,7,1.94,11.72,5.82,14.19,1.53,0.98,3.31,1.5,5.37,1.5,4.5,0,7.71-2.28,9.63-6.81,1.05-2.42,1.59-5.31,1.59-8.66,0-7.44-2.02-12.35-6.09-14.72-1.53-0.79-3.26-1.19-5.13-1.19zm-40.78,0.1c-4.12,0-7.16,2.15-9.12,6.44-1.2,2.56-1.79,5.6-1.79,9.15,0,6.41,1.71,10.93,5.16,13.59,1.68,1.34,3.6,2.01,5.75,2,4.21,0,7.35-2.02,9.41-6.06,1.34-2.61,2-5.71,2-9.31,0-6.51-1.77-11.1-5.32-13.81-1.77-1.33-3.79-2-6.09-2zm123.53,11.44h17.75v5.5h-17.75v-5.5z"/></svg>
