<!-- Designed by Clark Winkelmann for <https://coupe.robots-ju.ch/> -->
<svg xmlns="http://www.w3.org/2000/svg" version="1.1" viewBox="0 0 394 380"><path d="m44.344-0.0025024,0,33.6-44.344,0,0,346.4,394,0,0-346.4-44.344,0,0-33.6-143.25,0,0,33.6-18.812,0,0-33.6z" fill="#f1f1f1"/><path d="m57.714,196.9c-13.14,0.00009-22.381,3.274-27.719,9.8438-5.338,6.5699-8,17.947-8,34.125s2.662,27.555,8,34.125c5.3379,6.5698,14.579,9.8438,27.719,9.8438,10.758,0,19.828-1.1381,27.219-3.4375l-1.5938-13.938c-5.6665,0.73912-14.21,1.125-25.625,1.125-6.1592,0.00002-10.388-1.9527-12.688-5.8125-2.2173-3.9419-3.3125-11.23-3.3125-21.906s1.0952-17.953,3.3125-21.812c2.2994-3.9418,6.5283-5.9062,12.688-5.9062,9.2798,0.00007,17.254,0.21446,23.906,0.625l1.5938-14.062c-7.4732-1.8887-15.974-2.8124-25.5-2.8125zm66.875,24c-11.415,0.00006-19.487,2.4361-24.25,7.2812-4.681,4.8453-7.0312,13.132-7.0312,24.875,0,11.661,2.3502,19.905,7.0312,24.75,4.7631,4.7631,12.835,7.1562,24.25,7.1562,11.333,0,19.35-2.3931,24.031-7.1562,4.7631-4.8452,7.1562-13.089,7.1562-24.75-0.0001-11.661-2.3932-19.905-7.1562-24.75-4.681-4.9273-12.698-7.4062-24.031-7.4062zm218.59,0c-11.169,0.00006-19.143,2.3932-23.906,7.1562-4.6809,4.7632-7.0312,13.092-7.0312,25,0,11.333,2.436,19.479,7.2812,24.406,4.8452,4.9274,12.96,7.375,24.375,7.375,11.333,0,20.176-1.524,26.5-4.5625l-1.7188-11.312c-8.6229,0.90337-16.2,1.3438-22.688,1.3438-4.8452,0.00001-8.3336-0.74053-10.469-2.2188-2.0531-1.5603-3.3626-4.5654-3.9375-9h21.938c6.4876,0.00002,11.157-1.3953,14.031-4.1875,2.9564-2.8742,4.4375-7.146,4.4375-12.812-0.0821-7.1446-2.3896-12.426-6.9062-15.875-4.5167-3.5312-11.805-5.3124-21.906-5.3125zm-61.906,0.125c-4.5989,0.00006-9.1708,0.99787-13.688,2.9688-4.4346,1.971-7.923,4.4615-10.469,7.5l-1.3438-8.875h-14.781v84.156h18.094v-14.656c0.1643-4.5167,0.0356-8.8742-0.375-13.062,5.3379,3.9419,12.131,5.9062,20.344,5.9062,7.9659,0,13.773-2.3074,17.469-6.9062,3.7776-4.681,5.6874-12.839,5.6875-24.5-0.0001-21.68-6.9767-32.531-20.938-32.531zm-113.31,1.5938,0,45.469c0,11.251,5.7099,16.875,17.125,16.875,8.3764,0,16.748-3.3168,25.125-9.9688l1.3438,8.375h14.406v-60.75h-18.094v42.031c-6.5699,3.367-11.625,5.0313-15.156,5.0312-2.4637,0.00001-4.2021-0.52614-5.1875-1.5938-0.9855-1.0676-1.4258-2.9033-1.3438-5.5312v-39.938h-18.219zm175.81,11.594c3.9419,0.00005,6.678,0.56908,8.1562,1.7188,1.4781,1.0676,2.2186,3.032,2.2188,5.9062-0.0001,2.0531-0.4288,3.62-1.25,4.6875-0.7391,1.0676-2.2202,1.5938-4.4375,1.5938h-17.25c0.2463-5.5843,1.2442-9.2558,2.9688-11.062,1.7245-1.8888,4.9128-2.8437,9.5938-2.8438zm-219.19,0.375c4.7631,0.00004,7.9825,1.2667,9.625,3.8125,1.6424,2.4637,2.4688,7.3474,2.4688,14.656,0,7.2268-0.86915,12.068-2.5938,14.531-1.6425,2.4637-4.8191,3.6875-9.5,3.6875-4.8453,0.00001-8.0764-1.2238-9.7188-3.6875-1.6425-2.4637-2.4688-7.3044-2.4688-14.531,0-7.391,0.82625-12.318,2.4688-14.781,1.6424-2.4636,4.8734-3.6875,9.7188-3.6875zm149.41,0.71875c3.5312,0.00005,5.9789,1.298,7.375,3.8438,1.3961,2.4637,2.0938,7.2616,2.0938,14.406,0,7.3089-0.7523,12.107-2.3125,14.406-1.4783,2.2994-4.2572,3.4375-8.2812,3.4375-2.7922,0.00001-7.3756-0.79503-13.781-2.4375v-27.844c5.9128-3.8597,10.882-5.8124,14.906-5.8125zm-247,67,0,56.031,6.9062,0,0-24.188,17.938,0c1.1012,0.00002,2.1214,0.12858,3.0312,0.375,3.9739,0.83793,5.9688,4.0686,5.9688,9.6875l-0.09375,4.9688c0,3.6474,0.54035,6.6918,1.5938,9.1562h8.4062v-1.7812c-0.7661-0.54218-1.3963-1.1537-1.875-1.8438-0.8619-1.3801-1.3415-4.5399-1.4375-9.4688-0.0479-4.3867-0.46725-7.5465-1.2812-9.4688-0.9577-2.0208-3.0129-3.7136-6.125-5.0938,1.1969-0.64072,2.2923-1.2655,3.25-1.9062,3.591-2.6123,5.3749-6.4412,5.375-11.469-0.0001-2.1687-0.25465-4.1054-0.78125-5.7812-2.059-6.161-7.3378-9.2187-15.812-9.2188h-25.062zm92.438,0,0,56.031,5.5938,0,0-5.1875c2.9686,4.6332,7.1227,6.9687,12.438,6.9688,3.9741-0.00001,7.3625-1.2675,10.188-3.7812,4.5486-3.9431,6.8438-10.063,6.8438-18.344,0-5.0767-0.9451-9.331-2.8125-12.781-2.9207-5.5696-7.5694-8.3437-13.938-8.3438-5.219,0.00005-9.2522,2.2203-12.125,6.6562v-21.219h-6.1875zm186.88,0,0,39.406c0,4.2388-0.56965,7.2124-1.7188,8.9375-1.5322,2.3166-3.721,3.4688-6.5938,3.4688-0.814,0.00001-1.5797-0.0709-2.25-0.21875-3.9741-0.98577-5.9375-4.2873-5.9375-9.9062v-3.625h-7.0625v4.875c0,3.1545,0.69065,5.9022,2.0312,8.2188,2.5856,4.436,6.9484,6.6562,13.125,6.6562,3.3038-0.00001,6.1831-0.72687,8.625-2.1562,4.5008-2.7109,6.7499-7.2355,6.75-13.594v-42.062h-6.9688zm18.812,0,0,39.312c0,4.1896,1.035,7.7614,3.0938,10.719,3.6389,5.1753,9.577,7.7812,17.812,7.7812,5.219-0.00001,9.6276-1.1522,13.219-3.4688,5.171-3.3023,7.7499-8.328,7.75-15.031v-39.312h-6.9688v39.312c-0.0001,2.2673-0.48,4.2749-1.4375,6-2.2025,4.1403-6.3859,6.2188-12.562,6.2188-4.022,0-7.3354-0.99719-9.9688-2.9688-2.6335-2.1687-3.9688-5.2576-3.9688-9.25v-39.312h-6.9688zm-120.38,4.6562,0,11.094-5.2188,0,0,5.25,5.2188,0,0,30.438c0,0.44361,0.0457,0.84247,0.0937,1.1875,0.5745,3.4502,3.0638,5.1875,7.4688,5.1875,1.4842-0.00001,3.1786-0.18623,5.0938-0.53125v-5.375c-0.7182,0.19723-1.6927,0.28126-2.9375,0.28125-0.7661,0.00001-1.3816-0.0709-1.8125-0.21875-1.1012-0.29572-1.6562-1.4347-1.6562-3.4062v-27.562h6.4062v-5.25h-6.4062v-11.094h-6.25zm-170.84,1.625,16.812,0c3.6389,0.00005,6.247,0.69567,7.875,2.125,1.8673,1.6759,2.8124,4.2109,2.8125,7.5625-0.0001,1.1337-0.08975,2.1441-0.28125,3.0312-0.9098,4.3867-4.3734,6.5625-10.406,6.5625h-16.812v-19.281zm60.312,8.2812c-3.7826,0.00005-7.0209,0.95278-9.75,2.875-5.2669,3.5981-7.9062,9.86-7.9062,18.781,0,4.8303,0.8243,8.956,2.5,12.406,2.9687,6.1118,8.0679,9.1875,15.25,9.1875,3.9262-0.00001,7.2542-1.0104,10.031-3.0312,5.0753-3.5981,7.625-9.705,7.625-18.281,0-4.6824-0.71985-8.6664-2.1562-11.969-2.825-6.654-8.0288-9.9687-15.594-9.9688zm83.031,0c-3.7826,0.00005-7.0209,0.95278-9.75,2.875-5.2669,3.5981-7.9062,9.86-7.9062,18.781,0,4.8303,0.8242,8.956,2.5,12.406,2.9686,6.1118,8.0366,9.1875,15.219,9.1875,3.9262-0.00001,7.2855-1.0104,10.062-3.0312,5.0753-3.5981,7.6249-9.705,7.625-18.281-0.0001-4.6824-0.71985-8.6664-2.1562-11.969-2.8249-6.654-8.0286-9.9687-15.594-9.9688zm60.562,0c-3.3994,0.00005-6.3394,0.62478-8.7812,1.9062-4.1657,2.1687-6.25,5.6565-6.25,10.438,0,2.218,0.40475,4.0394,1.2188,5.4688,1.5321,2.6123,5.2816,4.6464,11.219,6.125l5.8125,1.5c0.7182,0.19717,1.3775,0.3966,2,0.59375,2.6813,0.98578,4.0312,2.6342,4.0312,5,0,0.93651-0.25455,1.8496-0.78125,2.6875-1.3885,2.4152-4.1782,3.625-8.3438,3.625-3.5431,0.00001-6.1221-0.92631-7.75-2.75-0.9098-0.98578-1.5252-2.6786-1.8125-5.0938h-6.5938c0,0.4436,0.0145,0.85569,0.0625,1.25,0.7182,8.3298,5.9218,12.5,15.594,12.5,3.7347-0.00001,6.9291-0.68241,9.5625-2.0625,4.3571-2.2673,6.5312-5.8392,6.5312-10.719,0-1.3801-0.1648-2.6344-0.5-3.7188-1.1492-3.5488-4.6732-6.0526-10.562-7.5312l-5.9688-1.4062c-0.814-0.19712-1.5632-0.40978-2.2812-0.65625-3.3038-1.1336-4.9688-2.8577-4.9688-5.125,0-0.83788,0.1648-1.6044,0.5-2.3438,1.1491-2.4644,3.7738-3.7187,7.8438-3.7188,5.0753,0.00003,7.6688,2.1494,7.8125,6.4375h6.625c-0.0001-1.6758-0.2859-3.2268-0.8125-4.6562-1.7238-5.1753-6.1762-7.75-13.406-7.75zm-143.5,5.9688c1.8673,0.00003,3.5614,0.39891,5.0938,1.1875,4.0698,2.3659,6.0938,7.2762,6.0938,14.719,0,3.3517-0.5092,6.2411-1.5625,8.6562-1.9153,4.5346-5.1243,6.8125-9.625,6.8125-2.0589,0.00001-3.8742-0.51422-5.4062-1.5-3.8784-2.4644-5.8125-7.1885-5.8125-14.188,0-3.3023,0.4799-6.1918,1.4375-8.6562,1.8674-4.6824,5.1368-7.0312,9.7812-7.0312zm83,0c1.8673,0.00003,3.5927,0.39891,5.125,1.1875,4.0698,2.3659,6.0938,7.2762,6.0938,14.719,0,3.3517-0.54045,6.2411-1.5938,8.6562-1.9152,4.5346-5.1243,6.8125-9.625,6.8125-2.0589,0.00001-3.8428-0.51422-5.375-1.5-3.8783-2.4644-5.8125-7.1885-5.8125-14.188,0-3.3023,0.4798-6.1918,1.4375-8.6562,1.8672-4.6824,5.1056-7.0312,9.75-7.0312zm-40.781,0.0937c2.2982,0.00003,4.322,0.66923,6.0938,2,3.543,2.7109,5.3125,7.3064,5.3125,13.812,0,3.5981-0.6594,6.7002-2,9.3125-2.0589,4.0417-5.1928,6.0625-9.4062,6.0625-2.1547,0.00001-4.0742-0.6692-5.75-2-3.4474-2.6616-5.1562-7.1862-5.1562-13.594,0-3.5488,0.58425-6.5932,1.7812-9.1562,1.9631-4.2881,5.0072-6.4375,9.125-6.4375zm123.53,11.438,0,5.5,17.75,0,0-5.5-17.75,0z" fill="#000"/><path d="m66.346,19.997,0,33.6-44.344,0,0,128.82,350,0,0-128.82-44.344,0,0-33.6-99.25,0,0,33.6-62.812,0,0-33.6z" fill="#ffaf22"/><path fill="#ff3c34" d="M66.125,94.375,61.656,131,161.12,143.12,165.56,106.53,66.125,94.375zm261.75,0-99.438,12.156l4.44,36.59,99.46-12.12-4.46-36.625z"/></svg>
