<!-- Designed by Clark Winkelmann for <https://coupe.robots-ju.ch/> -->
<svg xmlns="http://www.w3.org/2000/svg" version="1.1" viewBox="0 0 394 380"><path d="M66.344,20v33.594h-44.344v128.82h350v-128.82h-44.34v-33.594h-99.25v33.594h-62.82v-33.594h-99.246zm-0.219,74.375l99.435,12.155-4.44,36.59-99.464-12.12,4.469-36.625zm261.76,0l4.46,36.625-99.46,12.12-4.44-36.59,99.44-12.155zm-270.16,102.54c-13.14,0-22.381,3.27-27.719,9.84s-8,17.95-8,34.13c0,16.17,2.662,27.55,8,34.12s14.579,9.84,27.719,9.84c10.758,0,19.827-1.13,27.219-3.43l-1.594-13.94c-5.667,0.74-14.21,1.12-25.625,1.12-6.159,0-10.388-1.95-12.688-5.81-2.217-3.94-3.312-11.23-3.312-21.9,0-10.68,1.095-17.96,3.312-21.82,2.3-3.94,6.528-5.9,12.688-5.9,9.28,0,17.254,0.21,23.906,0.62l1.594-14.06c-7.473-1.89-15.974-2.81-25.5-2.81zm66.871,24c-11.41,0-19.48,2.43-24.25,7.28-4.677,4.84-7.028,13.13-7.028,24.87,0,11.66,2.351,19.91,7.028,24.75,4.77,4.77,12.84,7.16,24.25,7.16,11.34,0,19.35-2.39,24.03-7.16,4.77-4.84,7.16-13.09,7.16-24.75s-2.39-19.9-7.16-24.75c-4.68-4.92-12.69-7.4-24.03-7.4zm218.6,0c-11.17,0-19.15,2.39-23.91,7.15-4.68,4.77-7.03,13.09-7.03,25,0,11.34,2.44,19.48,7.28,24.41,4.85,4.93,12.96,7.37,24.38,7.37,11.33,0,20.17-1.52,26.5-4.56l-1.72-11.31c-8.63,0.9-16.2,1.34-22.69,1.34-4.85,0-8.33-0.74-10.47-2.22-2.05-1.56-3.36-4.56-3.94-9h21.94c6.49,0,11.16-1.39,14.03-4.18,2.96-2.88,4.44-7.15,4.44-12.82-0.08-7.14-2.39-12.42-6.91-15.87-4.51-3.53-11.8-5.31-21.9-5.31zm-61.91,0.12c-4.6,0-9.17,1-13.69,2.97-4.43,1.97-7.92,4.46-10.47,7.5l-1.34-8.88h-14.78v84.16h18.09v-14.66c0.17-4.51,0.04-8.87-0.37-13.06,5.34,3.94,12.13,5.91,20.34,5.91,7.97,0,13.78-2.31,17.47-6.91,3.78-4.68,5.69-12.84,5.69-24.5,0-21.68-6.98-32.53-20.94-32.53zm-113.31,1.59v45.47c0,11.25,5.71,16.88,17.12,16.88,8.38,0,16.75-3.32,25.13-9.97l1.34,8.38h14.41v-60.76h-18.09v42.04c-6.57,3.36-11.63,5.03-15.16,5.03-2.46,0-4.2-0.53-5.19-1.6-0.98-1.06-1.42-2.9-1.34-5.53v-39.94h-18.22zm175.81,11.6c3.94,0,6.68,0.57,8.16,1.72,1.48,1.07,2.22,3.03,2.22,5.9,0,2.06-0.43,3.62-1.25,4.69-0.74,1.07-2.22,1.59-4.44,1.59h-17.25c0.25-5.58,1.24-9.25,2.97-11.06,1.72-1.89,4.91-2.84,9.59-2.84zm-219.19,0.37c4.77,0,7.99,1.27,9.63,3.82,1.64,2.46,2.47,7.34,2.47,14.65,0,7.23-0.87,12.07-2.6,14.53-1.64,2.47-4.82,3.69-9.5,3.69-4.84,0-8.07-1.22-9.71-3.69-1.65-2.46-2.47-7.3-2.47-14.53,0-7.39,0.82-12.32,2.47-14.78,1.64-2.46,4.87-3.69,9.71-3.69zm149.41,0.72c3.53,0,5.98,1.3,7.38,3.85,1.39,2.46,2.09,7.26,2.09,14.4,0,7.31-0.75,12.11-2.31,14.41-1.48,2.3-4.26,3.44-8.28,3.44-2.8,0-7.38-0.8-13.79-2.44v-27.85c5.92-3.85,10.89-5.81,14.91-5.81zm-247,67v56.03h6.906v-24.18h17.938c1.101,0,2.121,0.12,3.031,0.37,3.974,0.84,5.969,4.07,5.969,9.69l-0.094,4.97c0,3.64,0.54,6.69,1.594,9.15h8.406v-1.78c-0.766-0.54-1.396-1.15-1.875-1.84-0.862-1.38-1.341-4.54-1.437-9.47-0.048-4.39-0.468-7.55-1.282-9.47-0.957-2.02-3.013-3.71-6.125-5.09,1.197-0.64,2.293-1.27,3.25-1.91,3.591-2.61,5.375-6.44,5.375-11.47,0-2.17-0.254-4.1-0.781-5.78-2.059-6.16-7.338-9.22-15.813-9.22h-25.062zm92.44,0v56.03h5.59v-5.18c2.97,4.63,7.12,6.96,12.44,6.96,3.97,0,7.36-1.26,10.19-3.78,4.54-3.94,6.84-10.06,6.84-18.34,0-5.08-0.95-9.33-2.81-12.78-2.92-5.57-7.57-8.34-13.94-8.34-5.22,0-9.25,2.22-12.13,6.65v-21.22h-6.18zm186.87,0v39.41c0,4.24-0.57,7.21-1.72,8.94-1.53,2.31-3.72,3.46-6.59,3.46-0.81,0.01-1.58-0.07-2.25-0.21-3.97-0.99-5.94-4.29-5.94-9.91v-3.62h-7.06v4.87c0,3.15,0.69,5.9,2.03,8.22,2.59,4.43,6.95,6.65,13.13,6.65,3.3,0,6.18-0.72,8.62-2.15,4.5-2.71,6.75-7.24,6.75-13.59v-42.07h-6.97zm18.81,0v39.31c0,4.19,1.04,7.77,3.1,10.72,3.64,5.18,9.58,7.78,17.81,7.78,5.22,0,9.63-1.15,13.22-3.46,5.17-3.31,7.75-8.33,7.75-15.04v-39.31h-6.97v39.31c0,2.27-0.48,4.28-1.44,6-2.2,4.15-6.38,6.22-12.56,6.22-4.02,0-7.33-0.99-9.97-2.96-2.63-2.17-3.97-5.26-3.97-9.26v-39.31h-6.97zm-120.37,4.66v11.09h-5.22v5.25h5.22v30.44c0,0.44,0.05,0.84,0.09,1.19,0.58,3.45,3.07,5.18,7.47,5.18,1.49,0,3.18-0.18,5.1-0.53v-5.37c-0.72,0.2-1.7,0.28-2.94,0.28-0.77,0-1.38-0.07-1.81-0.22-1.1-0.29-1.66-1.43-1.66-3.4v-27.57h6.41v-5.25h-6.41v-11.09h-6.25zm-170.84,1.62h16.813c3.639,0,6.247,0.7,7.875,2.13,1.867,1.67,2.812,4.21,2.812,7.56,0,1.13-0.09,2.15-0.281,3.03-0.91,4.39-4.374,6.57-10.406,6.57h-16.813v-19.29zm60.313,8.29c-3.783,0-7.021,0.95-9.75,2.87-5.267,3.6-7.907,9.86-7.907,18.78,0,4.83,0.825,8.96,2.5,12.41,2.969,6.11,8.068,9.18,15.25,9.18,3.927,0,7.258-1.01,10.028-3.03,5.08-3.59,7.63-9.7,7.63-18.28,0-4.68-0.72-8.66-2.16-11.97-2.82-6.65-8.03-9.96-15.591-9.96zm83.031,0c-3.78,0-7.02,0.95-9.75,2.87-5.27,3.6-7.91,9.86-7.91,18.78,0,4.83,0.83,8.96,2.5,12.41,2.97,6.11,8.04,9.18,15.22,9.18,3.93,0,7.29-1.01,10.07-3.03,5.07-3.59,7.62-9.7,7.62-18.28,0-4.68-0.72-8.66-2.16-11.97-2.82-6.65-8.02-9.96-15.59-9.96zm60.56,0c-3.4,0-6.34,0.62-8.78,1.9-4.16,2.17-6.25,5.66-6.25,10.44,0,2.22,0.41,4.04,1.22,5.47,1.53,2.61,5.28,4.64,11.22,6.12l5.81,1.5c0.72,0.2,1.38,0.4,2,0.6,2.68,0.98,4.03,2.63,4.03,5,0,0.93-0.25,1.85-0.78,2.68-1.39,2.42-4.18,3.63-8.34,3.63-3.55,0-6.12-0.93-7.75-2.75-0.91-0.99-1.53-2.68-1.81-5.09h-6.6c0,0.44,0.02,0.85,0.06,1.24,0.72,8.33,5.93,12.5,15.6,12.5,3.73,0,6.93-0.68,9.56-2.06,4.36-2.26,6.53-5.84,6.53-10.72,0-1.38-0.16-2.63-0.5-3.72-1.15-3.54-4.67-6.05-10.56-7.53l-5.97-1.4c-0.81-0.2-1.56-0.41-2.28-0.66-3.31-1.13-4.97-2.86-4.97-5.12,0-0.84,0.16-1.61,0.5-2.35,1.15-2.46,3.77-3.72,7.84-3.72,5.08,0,7.67,2.15,7.82,6.44h6.62c0-1.67-0.28-3.23-0.81-4.66-1.73-5.17-6.18-7.74-13.41-7.74zm-143.5,5.96c1.868,0,3.562,0.4,5.094,1.19,4.074,2.37,6.094,7.28,6.094,14.72,0,3.35-0.51,6.24-1.56,8.66-1.92,4.53-5.127,6.81-9.628,6.81-2.058,0-3.874-0.52-5.406-1.5-3.878-2.47-5.812-7.19-5.812-14.19,0-3.3,0.48-6.19,1.437-8.65,1.868-4.69,5.137-7.04,9.781-7.04zm82.998,0c1.87,0,3.6,0.4,5.13,1.19,4.07,2.37,6.09,7.28,6.09,14.72,0,3.35-0.54,6.24-1.59,8.66-1.92,4.53-5.13,6.81-9.63,6.81-2.06,0-3.84-0.52-5.37-1.5-3.88-2.47-5.82-7.19-5.82-14.19,0-3.3,0.48-6.19,1.44-8.65,1.87-4.69,5.11-7.04,9.75-7.04zm-40.78,0.1c2.3,0,4.32,0.67,6.09,2,3.55,2.71,5.32,7.3,5.32,13.81,0,3.6-0.66,6.7-2,9.31-2.06,4.04-5.2,6.06-9.41,6.06-2.15,0.01-4.07-0.66-5.75-2-3.45-2.66-5.16-7.18-5.16-13.59,0-3.55,0.59-6.59,1.79-9.15,1.96-4.29,5-6.44,9.12-6.44zm123.53,11.44v5.5h17.75v-5.5h-17.75z"/></svg>
