<?xml version="1.0" encoding="UTF-8"?>
<svg version="1.1" viewBox="0 0 588.9 240.57" xmlns="http://www.w3.org/2000/svg">
<path d="m8.8081 50.047c-3.4886-0.225-6.2454 1.0027-5.3438 4.9687-1.5424 39.556-4.3503 79.374-0.59375 118.84 2.2307 9.9506 12.036 19.054 22.717 16.169 23.624-1.1298 49.361-11.587 60.189-33.825 5.077-11.386 2.9546-28.251-9.9375-33.187-20.002-6.8858-41.556 1.2254-58.594 11.906 1.4052-24.756 7.151-49.251 7.2188-74.188-0.936-7.4009-8.856-11.164-15.655-10.691zm317.75 11.687c-18.703 1.1875-40.308 9.3193-46.781 28.5-3.1689 11.442 3.3934 22.457 9.5 31.625-11.805 11.081-29.684 16.536-37.312 31.75-5.0235 10.318-3.0697 25.835 8.75 30.406 13.303 5.749 28.542 2.6558 42.344 0.65625 11.923-2.6062 22.8-8.3587 33.781-13.562 10.835 7.6649 21.446 19.348 35.812 18.969 6.3106-0.59213 14.817-6.883 11.062-13.844-4.5873-4.9122-12.236-5.7643-17.594-9.9688-3.4053-2.9208-8.3963-5.3967-9.9375-9.625 10.2-9.3058 19.215-24.52 12.844-38.5-3.1936-7.3359-16.676-5.5597-15.969 3.125-0.14614 8.777-3.3841 17.501-9.375 23.875-9.0703-7.7022-18.209-15.965-23.844-26.75 11.896-8.596 24.69-17.736 31.438-31.312 3.3072-8.2906 1.4147-21.145-8.6562-23.312-5.0928-1.9544-10.648-2.1594-16.062-2.0312zm-5.0938 10.969c8.4104 1.5965 9.4194 13.528 3.955 18.995-4.018 5.931-8.9506 11.524-15.799 14.193-4.7195-5.2745-9.9092-13.795-3.875-20.188 3.8593-5.7597 9.3588-10.455 15.719-13zm-207.72 2.9688c-7.3832 0.97669-7.9568 10.176-6.8092 16.027-0.48511 5.4941 1.9791 11.446 7.8404 12.755 5.8679 2.3338 13.862-1.6848 12.606-8.7444 1.1964-6.9152 0.44265-17.369-8.012-18.943-1.8111-0.59799-3.6703-1.2487-5.625-1.0938zm-3.8125 40.625c-6.5093 0.63668-5.8205 8.5497-4.6562 13.094 2.2826 19.045-0.99132 38.923 4 57.5 4.4715 5.6888 16.487 3.9342 16.125-4.4062 1.9104-20.644 1.1578-41.552 4.3125-62.031-6.6146-1.3139-12.911-4.5037-19.781-4.1562zm345.09 0.0312c-26.236 1.3552-53.791 16.751-62.094 42.812-2.9416 10.994 1.5635 25.675 13.656 28.438 17.793 4.8522 36.565 1.2756 54.449-1.1961 9.6272-2.113 20.401-4.3247 27.394-11.679 2.4331-5.3297-3.9217-9.056-8.5625-7.625-12.236 4.1321-23.885 10.856-37.125 10.562-9.7051-0.1815-21.129-4.1774-25.531-13.344-3.9414-10.102 4.2664-19.955 11.688-25.75 10.31-7.8592 24.446-8.4403 36.219-3.8438 5.3595 1.8884 14.599 1.3784 14.875-5.9688 0.12039-9.2887-10.552-12.633-18.219-12.406-2.2497-0.061-4.5-0.022-6.75 0zm91.156 4.1562c-19.677 1.1845-42.038 10.076-49.031 30.062-4.0312 12.931 0.49087 30.621 14.75 34.719 22.094 4.1844 48.524 3.1445 65.25-13.594 11.12-10.744 15.545-31.386 3.8438-43.25-9.3883-8.005-23.099-8.1145-34.812-7.9375zm-348.5 0.65625c-20.257-1.3354-42.025 8.3755-50.688 27.375-5.3898 11.862-2.9907 29.417 10.281 35.062 13.378 6.1589 28.851 3.3972 42.969 1.875 19.617-3.8728 38.508-21.423 36.312-42.687 0.28814-12.774-12.711-21.169-24.406-21.094-4.8023-0.50262-9.6433-0.59802-14.469-0.53125zm101.12 11.094c9.3415 7.0144 15.413 17.409 23.844 25.25 1.943 1.7826 3.3412 5.9019-0.51704 6.452-12.21 6.1482-27.287 13.093-40.764 7.048-5.9882-3.3316-8.6977-11.769-3.5625-17.062 5.1748-8.653 11.568-16.78 20.281-22.156l0.71875 0.46875zm244.5 0.8125c11.636 0.86132 26.017 10.468 23.125 23.844-4.7492 14.58-24.353 23.085-37.312 13.656-8.0828-4.1482-15.981-15.434-9.5938-24.031 4.6688-8.242 14.515-13.24 23.781-13.469zm-490.62 0.25c9.801 2.7314 14.695 14.794 10.062 23.687-4.4686 13.6-21.74 22.882-34.625 14.844-7.3482-2.9055-10.18-11.953-10.625-18.906 8.6078-10.228 21.408-17.189 34.594-19.781l0.59375 0.15625zm139.28-0.0312c12.315-0.0452 26.282 11.364 22.656 24.531-4.6006 15.067-25.017 21.948-37.594 12.25-8.353-4.3792-15.398-16.465-8.2812-24.875 4.8193-7.7395 14.15-12.049 23.219-11.906z" fill="#008000"/>
</svg>
