<?xml version="1.0" encoding="UTF-8"?>
<svg version="1.1" viewBox="0 0 201.6 55.84" xmlns="http://www.w3.org/2000/svg">
<path d="m39.473 37.48c-1.042 0-1.5659 0.52148-1.5659 1.5644v2.0024h-7.9248c-4.6914 0-7.0752 1.5054-7.1836 4.4956-0.0547 2.0566-0.0815 3.7847-0.0278 5.1284 0.0557 1.5898 0.93408 2.7148 2.6616 3.3984 1.207 0.4668 2.7388 0.71485 4.5776 0.71485h4.3345c1.6416 0 3.1797-0.33009 4.6318-0.96094 1.8379-0.82227 2.77-1.9995 2.77-3.4819v-11.297c0-0.6875-0.24659-1.1538-0.73975-1.3726-0.27442-0.13671-0.79346-0.1919-1.5337-0.1919zm59.477 0c-1.041 0-1.563 0.52148-1.563 1.5644 0 1.2051 0.52197 1.8091 1.563 1.8091h0.68409c0.33007-0.0273 0.60449-0.0278 0.82323-0.0278 2.3301 0 3.5923 0.54932 3.731 1.6743v0.54785h-9.3516c-1.5371 0-2.9092 0.27589-4.0635 0.82471-1.5859 0.76563-2.3818 1.9194-2.3818 3.4819v3.2051c0 1.4551 0.85058 2.5527 2.4932 3.3457 1.2637 0.57617 2.6055 0.87891 4.0606 0.87891h6.9111c4.1973 0 6.2812-1.4526 6.2812-4.3608v-8.3906c0-1.2637-0.57813-2.3594-1.7578-3.2637-0.79297-0.63086-1.9746-1.0151-3.5625-1.1792-0.6875-0.082-1.9741-0.10986-3.8672-0.10986zm-90.684 3.4556c-1.8115 0-3.3447 0.30028-4.6641 0.9331-1.7236 0.79297-2.6016 2.0288-2.6016 3.646v4.7168c0 1.2598 0.57324 2.3579 1.752 3.2622 0.7959 0.63281 1.9751 1.0161 3.5669 1.1821 0.6875 0.0821 1.9746 0.1084 3.8672 0.1084 1.042 0 1.563-0.52051 1.563-1.5615 0-1.207-0.521-1.8106-1.563-1.8106h-0.68848c-0.32813 0.0273-0.59961 0.0264-0.82324 0.0264-2.3281 0-3.5889-0.54834-3.7266-1.6714h13.518c0.38672 0 0.71289-0.19482 0.95801-0.57568 0.22461-0.33008 0.33399-0.71582 0.33399-1.0986v-3.0996c0-1.4531-0.79639-2.5498-2.3335-3.29-1.125-0.52148-2.4116-0.76758-3.895-0.76758zm37.871 0.0293c-1.0439 0-1.5674 0.49219-1.5674 1.5352v7.9512c0 2.8809 2.4717 4.333 7.3799 4.333 0.19141 0 0.6001 4.3e-4 1.2056 0.0278 0.6582 0.0273 1.2065 0.0278 1.6186 0.0278 1.4512 0 2.7129-0.082 3.7559-0.2461 3.3203-0.52344 4.9907-1.8926 4.9907-4.1426v-7.9512c0-1.043-0.51904-1.5352-1.5601-1.5352-0.76954 0-1.29 0.0273-1.5674 0.13477-0.49024 0.21875-0.73828 0.68554-0.73828 1.4004v8.0054c0 0.46679-0.4917 0.76954-1.4546 0.87891-0.19141 0.0274-0.87695 0.0278-2.0273 0.0278h-4.2232c-1.1826 0-1.8657-4.3e-4 -2.0581-0.0278-0.98731-0.10937-1.481-0.43897-1.481-0.93311v-7.9512c0-0.6875-0.24512-1.1523-0.74121-1.3711-0.27344-0.11136-0.76563-0.16407-1.5322-0.16407zm26.517 0c-1.7012 0-3.1006 0.24414-4.1982 0.73828-1.5625 0.74024-2.332 1.9463-2.332 3.6475v5.0449c0 1.7832 0.82422 3.0156 2.4141 3.7031 1.127 0.46679 2.6875 0.68555 4.7168 0.68555h10.45c0.4375 0 0.84864-0.10937 1.1748-0.35743 0.41601-0.27343 0.63282-0.6826 0.63282-1.2041 0-1.207-0.52051-1.8105-1.5615-1.8105h-10.614c-0.98632 0-1.6445-0.0273-2.0039-0.082-0.9297-0.16406-1.3682-0.52149-1.3682-1.043v-5.0186c0-0.63281 0.96046-0.93164 2.9077-0.93164h10.994c0.4707 0 0.87939-0.19335 1.1528-0.52148 0.27733-0.33008 0.38671-0.71386 0.38671-1.1807 0-0.46484-0.10938-0.85059-0.38671-1.1514-0.27345-0.35547-0.68214-0.51856-1.1528-0.51856zm-64.061 3.3721h4.0312c1.2646 0.082 2.0337 0.1352 2.3071 0.1626 0.71386 0.13672 1.0679 0.38721 1.0679 0.71338v1.0986h-11.159v-0.9873c0-0.49219 0.51757-0.82421 1.5586-0.93164 0.30078-0.0547 1.0176-0.0557 2.1943-0.0557zm21.335 0.1084h7.979v5.8418c0 0.57617-0.5459 0.93115-1.6143 1.0679-0.30664 0.0292-1.043 0.0571-2.2529 0.0571h-4.0576c-1.0684 0-1.7573-0.0273-2.0288-0.082-0.87891-0.16406-1.314-0.5493-1.314-1.1821v-4.5513c0-0.76562 1.0962-1.1514 3.2886-1.1514zm64.852 1.9761h9.5156c0.0547 1.6465 0.0298 4.1382-0.0542 4.3316-0.19139 0.43946-0.98583 0.65918-2.3569 0.65918h-7.0225c-1.7539 0-2.6294-0.30274-2.6294-0.87891v-3.2051c0-0.60351 0.85009-0.90674 2.5474-0.90674z" fill="#666a6f"/>
<path d="m105.2 26.93c-1.6797 0-2.5151 0.97021-2.5151 3.0015 0 1.6797 0.83546 2.5151 2.5151 2.5151h9.7544v19.821c0 1.1914 0.39697 1.9424 1.2349 2.2939 0.44531 0.13475 1.3276 0.22266 2.6499 0.22266 1.6328 0 2.4727-0.83887 2.4727-2.5166v-19.821h9.8013c1.6758 0 2.5137-0.83546 2.5137-2.5151 0-2.0312-0.83788-3.0015-2.5137-3.0015zm42.287 0c-2.957 0-5.5156 0.48583-7.6816 1.5439-2.8242 1.3262-4.2363 3.3106-4.2363 5.959v12.979c0 2.6914 1.458 4.6777 4.3272 5.959 2.0293 0.92772 4.459 1.4136 7.1953 1.4136h17.127c1.6777 0 2.4727-1.0156 2.4727-3.0469 0-1.6777-0.79492-2.5151-2.4727-2.5151h-16.907c-3.5312 0-5.3394-0.61866-5.3394-1.9409v-3.5332h22.247c0.79493 0 1.4566-0.30859 1.9409-0.92578 0.44336-0.53125 0.6211-1.1944 0.6211-1.9424 0-0.75196-0.17774-1.3682-0.6211-1.8545-0.44141-0.5293-1.103-0.84082-1.9409-0.84082h-22.293v-3.7515c0-1.3672 2.2515-2.0742 6.7984-2.0742 0.61914 0 1.3247 5.1e-4 2.1196 0.0454 0.79491 0.043 1.2363 0.0425 1.3242 0.0425 1.6758 0 2.5181-0.83546 2.5181-2.5151v-0.53027c0-1.6323-0.84228-2.4712-2.5181-2.4712zm33.461 0c-1.7656 0-3.1792 0.0869-4.1499 0.21972-1.8984 0.35156-3.5317 1.0606-4.9438 2.1211-1.7207 1.3242-2.603 2.9575-2.603 4.856v13.063c0 1.2793 0.2207 2.3398 0.75 3.2227 0.52929 1.0156 1.5449 1.8989 3 2.6938 1.3242 0.75 2.6064 1.1919 3.8408 1.4106 1.0156 0.17968 2.647 0.2666 4.856 0.2666h16.289c0.79493 0 1.4116-0.30957 1.853-0.88183 0.39648-0.48633 0.61816-1.1494 0.61816-1.9014 0-0.74805-0.22168-1.3691-0.61816-1.8984-0.44141-0.57226-1.0581-0.88037-1.853-0.88037h-16.289c-4.0176 0-6.0469-0.70752-6.0469-2.1196v-12.976c0-0.88477 0.75048-1.415 2.2075-1.5908 0.35156-0.0899 1.4116-0.0893 3.1772-0.0893h17.039c1.6777 0 2.5181-0.83546 2.5181-2.5151 0-2.0312-0.84032-3.0015-2.5181-3.0015z" fill="#d2103e"/>
<path d="m121.7 16.26-10.609-10.61c-2.2246-2.2246-5.1943-3.4492-8.3604-3.4492-3.166 0-6.1338 1.2246-8.3569 3.4492l-2.563 2.5635-4.1465-4.1475c-1.3042-1.3027-3.0439-2.0205-4.8994-2.0195-1.854 0-3.5923 0.7168-4.8945 2.0195l-5.8032 5.8008-6.7295-6.7295c-0.67431-0.6748-1.5747-1.0469-2.5352-1.0478-0.96045 0-1.8608 0.37305-2.5352 1.0478l-7.648 7.6465-9.7866-9.7842-0.38916 0.38867-11.417 11.422-11.812 11.809 10.872 10.873h1.5557c-4.9785-4.9805-9.9331-9.9341-10.872-10.873 0.72607-0.72656 11.035-11.031 11.035-11.031s9.0737-9.0772 11.028-11.033c0.66699 0.66699 7.9219 7.9199 9.0088 9.0078l-10.524 10.521c-1.3965 1.3975-1.3965 3.6719-4.8e-4 5.0703 0 0 4.0093 4.0073 8.3389 8.3374h1.98l-9.3286-9.3276c-0.85059-0.85156-0.85107-2.2383 4.9e-4 -3.0898l18.95-18.947c0.41016-0.41015 0.9585-0.63672 1.5449-0.63672 0.58593 0 1.1348 0.22657 1.5444 0.63672 0 0 5.0215 5.0225 6.73 6.7305l-5.333 5.332c-9.8e-4 0-3.5303 3.5332-3.5303 3.5332-1.3037 1.3018-2.022 3.041-2.0225 4.8945 0 1.8555 0.71826 3.5952 2.0234 4.8999l5.9746 5.9746h2.4043c-3.6856-3.6856-7.1772-7.1777-7.1772-7.1777-0.98388-0.98291-1.5254-2.2944-1.5249-3.6958 0-1.4004 0.54151-2.7119 1.5244-3.6924 9.7e-4 -2e-3 3.5303-3.5352 3.5303-3.5352l12.126-12.121c0.98145-0.98242 2.293-1.5234 3.6929-1.5234 1.4014 0 2.7144 0.54102 3.6968 1.5234 0 0 3.1064 3.1055 4.1465 4.1465l-6.8442 6.8457c-2.2241 2.2226-3.4492 5.1904-3.4497 8.3555-4.9e-4 3.167 1.2246 6.1362 3.4497 8.3608l2.5132 2.5137h2.8281l-3.9272-3.9277c-1.8472-1.8476-2.8638-4.314-2.8638-6.9458s1.0171-5.0967 2.8638-6.9424l10.609-10.611c1.8457-1.8457 4.311-2.8633 6.9429-2.8633 2.6318 0 5.0996 1.0166 6.9463 2.8633l10.609 10.611c1.8467 1.8457 2.8633 4.3106 2.8633 6.9424v9.8e-4c0 0.79101-0.10254 1.5644-0.28125 2.3144h2.0576c0.14746-0.7539 0.22363-1.5293 0.22363-2.3164 0-3.165-1.2246-6.1328-3.4492-8.3564z" fill="#bec2c5"/>
</svg>
