<?xml version="1.0" encoding="UTF-8"?>
<svg version="1.1" viewBox="0 0 231.81 50.764" xmlns="http://www.w3.org/2000/svg">
<path d="m34.243 1c-0.712 0-1.291 0.57802-1.291 1.291 0 0.574 0.37458 1.0595 0.89258 1.2285 0.194 4.397 2.5868 7.8711 5.5098 7.8711 2.917 0 5.3048-3.4579 5.5098-7.8379 0.577-0.129 1.0098-0.64472 1.0098-1.2617 0-0.713-0.57902-1.291-1.291-1.291-0.715 0-1.291 0.57802-1.291 1.291 1e-6 0.523 0.31081 0.97278 0.75781 1.1758-0.385 2.596-1.2356 4.4004-2.2246 4.4004-0.975 0-1.817-1.7588-2.209-4.3008 0.617-0.097 1.0898-0.63039 1.0898-1.2754 0-0.713-0.57902-1.291-1.291-1.291-0.714 0-1.293 0.57802-1.293 1.291 0 0.605 0.41656 1.111 0.97656 1.252-0.39 2.555-1.2329 4.3242-2.2129 4.3242-0.983 0-1.8317-1.7825-2.2188-4.3555 0.505-0.176 0.86914-0.6557 0.86914-1.2207 0-0.713-0.57897-1.291-1.293-1.291zm184.59 0.26758c-1.603 0-2.793 0.92477-2.793 2.2598 0 2.892 4.7988 1.7245 4.7988 3.8145 0 0.631-0.46225 1.4102-1.9062 1.4102-1.143 1e-7 -2.0171-0.55902-2.5391-1.166l-0.60742 0.77539c0.668 0.753 1.7124 1.2891 3.1094 1.2891 2.185 0 2.9883-1.2149 2.9883-2.3809 0-3.025-4.7988-1.9807-4.7988-3.8027 1e-5 -0.765 0.70307-1.2871 1.6641-1.2871 0.886 0 1.7378 0.2907 2.3438 0.9707l0.60742-0.74023c-0.679-0.716-1.6392-1.1426-2.8672-1.1426zm7.4727 0.13281-3.2695 8.1035h1.1543l0.7168-1.8105h4.0332l0.7168 1.8105h1.1543l-3.2539-8.1035zm-74.625 0.080078c-2.014 0-3.6484 1.6334-3.6484 3.6484 0 2.013 1.6344 3.6445 3.6484 3.6445 2.015 0 3.6445-1.6315 3.6445-3.6445 0-2.015-1.6285-3.6484-3.6445-3.6484zm75.244 0.95508 1.7246 4.373h-3.4375zm-51.73 11.107c-4.326 0-8.173 2.0437-10.627 5.2207l-9.9277 10.805v-12.471l-6e-3 -0.18555c0.045-0.815-0.22422-1.6218-0.82422-2.2188-0.568-0.57-1.3281-0.84212-2.1621-0.82812-0.54499 0-1.057 0.15759-1.498 0.43359-0.262 0.15-0.51224 0.33941-0.74024 0.56641l-10.887 10.885 4.2305 4.2305 5.9024-5.9023v12.91l6e-3 0.1875c-0.045 0.815 0.22526 1.6218 0.82226 2.2188 0.569 0.569 1.3291 0.84408 2.1621 0.83008 0.546 0 1.06-0.15855 1.498-0.43555 0.265-0.149 0.51519-0.33745 0.74219-0.56445l13.889-15.119 0.30469 0.30078 5.9277 5.9316 3.4336 3.4297 0.31055 0.31055c-0.798 0.287-1.6606 0.44336-2.5566 0.44336-0.374 0-0.74156-0.02513-1.1016-0.07813-0.23-0.035-0.45669-0.07686-0.67969-0.13086-0.139-0.035-0.27416-0.07128-0.41016-0.11328-0.185-0.055-0.36401-0.11655-0.54101-0.18555l-0.22852-0.09375-0.25-0.11133-0.14844-0.07227-0.13476-0.06836-0.1543-0.08203-0.16601-0.0957-0.22266-0.13477-0.125-0.08203-0.11914-0.08008-0.14453-0.10352-0.12695-0.09375-0.12891-0.09961-0.11914-0.0957c-0.708-0.583-1.3047-1.2956-1.7637-2.0996l-5.0781 2.9336c0.564 0.983 1.2452 1.8913 2.0312 2.6973 1.308 1.342 2.8925 2.4093 4.7715 3.1543l0.11523 0.04492 0.11914 0.04492 0.11524 0.03906 0.11132 0.03906c0.265 0.093 0.53357 0.17667 0.85157 0.26367 1.101 0.3 2.2613 0.46175 3.5273 0.46875 0.338 0 0.67872-0.01406 1.0117-0.03906l0.33008-0.0293 0.36328-0.03906 0.25586-0.03711 0.1914-0.02734 0.12696-0.02148 0.1914-0.0332 0.18164-0.03516 0.16211-0.0332 0.17383-0.03906 0.13086-0.03125 0.10742-0.02734 0.14063-0.0332c0.353-0.091 0.70292-0.19741 1.0449-0.31641 2.793-0.972 5.1654-2.8417 6.7754-5.2637l3.9023-4.4785c1.341 5.999 6.6986 10.484 13.102 10.484 7.412 0 13.42-6.0099 13.42-13.422 0-7.414-6.0079-13.422-13.42-13.422-3.8 0-7.2299 1.5743-9.6719 4.1113l-0.16015 0.15234-11.283 12.328-0.14648-0.14453-3.8828-3.8828-6.0723-6.0742c0.928-0.404 1.9513-0.62891 3.0273-0.62891 2.079 0 3.9621 0.84022 5.3281 2.1992l4.1465-4.1445c-2.429-2.42-5.7796-3.916-9.4766-3.916zm28.191 5.8613c4.172 0 7.5566 3.3855 7.5566 7.5605 0 4.174-3.3846 7.5566-7.5566 7.5566-4.176-1e-6 -7.5606-3.3826-7.5606-7.5566 0-4.175 3.3846-7.5605 7.5606-7.5605z" fill="#a7a8aa"/>
<path d="m129.66 14.11-9.719 9.756v-6.768l-4e-3 -0.185c0.046-0.815-0.227-1.623-0.824-2.22-0.568-0.57-1.328-0.842-2.163-0.828-0.546 0-1.057 0.158-1.498 0.434-0.265 0.15-0.514 0.339-0.741 0.566l-9.335 9.609c-1.167-6.223-6.629-10.932-13.193-10.932-3.069 0-5.899 1.03-8.161 2.765-1.193 0.954-2.038 1.61-2.999 2.57l-5.553 5.555c-1.185-6.202-6.637-10.89-13.185-10.89-2.751 0-5.309 0.827-7.439 2.248v-13.568h-5.983v20.678l-7.11 7.109v-12.911l-3e-3 -0.185c0.044-0.815-0.227-1.623-0.824-2.22-0.57-0.57-1.329-0.842-2.164-0.828-0.546 0-1.057 0.158-1.498 0.434-0.264 0.15-0.514 0.339-0.74 0.566l-8.984 9.258c-1.303-6.049-6.682-10.581-13.121-10.581-7.413 0-13.422 6.008-13.422 13.422 0 0.288 8e-3 0.573 0.026 0.856-0.018 0.144-0.026 0.29-0.026 0.437v21.507h5.982v-11.627c2.13 1.421 4.689 2.249 7.44 2.249 3.989 0 7.57-1.74 10.029-4.502 0.142-0.104 0.278-0.221 0.407-0.35l10.915-11.286v12.741l6e-3 0.187c-0.046 0.815 0.226 1.622 0.823 2.219 0.57 0.57 1.329 0.843 2.163 0.829 0.546 0 1.059-0.158 1.499-0.435 0.263-0.149 0.513-0.338 0.741-0.565l8.419-8.419c1.652 5.541 6.786 9.581 12.864 9.581 3.199 0 6.137-1.12 8.443-2.988 0.383-0.23 0.819-0.581 1.322-1.086l6.929-6.928c1.14 6.258 6.619 11.002 13.204 11.002 2.668 0 5.154-0.779 7.244-2.12 1.219-0.667 2.434-1.605 3.05-2.22l11.481-11.82v12.763c0 1.787 1.339 3.235 2.992 3.235s2.991-1.448 2.991-3.235v-4.662l13.949-13.986zm-107.68 12.854c0 4.174-3.384 7.559-7.558 7.559-3.714 0-6.803-2.68-7.44-6.266 0-0.299-0.037-0.59-0.107-0.864-8e-3 -0.142-0.012-0.285-0.012-0.429 0-4.175 3.383-7.56 7.559-7.56 4.174 0 7.558 3.385 7.558 7.56m47.868 0c0 1.86-0.672 3.564-1.788 4.88l-0.238 0.238c-0.101 0.101-0.194 0.205-0.28 0.316-1.36 1.315-3.212 2.125-5.254 2.125-4.174 0-7.559-3.385-7.559-7.559l5e-3 -0.236c0.076-0.285 0.115-0.586 0.115-0.897v-0.216c0.637-3.531 3.726-6.211 7.439-6.211 4.174 0 7.56 3.385 7.56 7.56m29.898 0c0 4.174-3.385 7.559-7.56 7.559-4.173 0-7.558-3.385-7.558-7.559 0-4.175 3.385-7.56 7.558-7.56 4.175 0 7.56 3.385 7.56 7.56" fill="#00458a"/>
</svg>
