<?xml version="1.0" encoding="UTF-8"?>
<!-- Generator: Adobe Illustrator 16.0.0, SVG Export Plug-In . SVG Version: 6.00 Build 0)  -->
<!DOCTYPE svg PUBLIC "-//W3C//DTD SVG 1.1//EN" "http://www.w3.org/Graphics/SVG/1.1/DTD/svg11.dtd">
<svg version="1.1" id="Calque_1" xmlns="http://www.w3.org/2000/svg" xmlns:xlink="http://www.w3.org/1999/xlink" x="0px" y="0px" width="253px" height="135px" viewBox="0 0 253 135" enable-background="new 0 0 253 135" xml:space="preserve">
<g>
	<path fill="#306980" d="M143.133,35.773c-0.154-0.614-0.356-1.202-0.607-1.763c-0.257-0.58-0.559-1.129-0.907-1.645   c-1.865-2.772-4.958-4.593-8.457-4.593c-5.692,0-10.321,4.806-10.321,10.716c0,0.449,0.035,0.889,0.086,1.323   c0.076,0.636,0.2,1.259,0.378,1.855c0.181,0.6,0.418,1.177,0.691,1.729c1.719,3.444,5.177,5.806,9.166,5.806   c5.69,0,10.319-4.803,10.319-10.714C143.481,37.55,143.354,36.642,143.133,35.773z"/>
	<g>
		<path fill="#E30613" d="M147.087,38.489c0,7.973-6.246,14.458-13.925,14.458c-5.522,0-10.351-3.335-12.602-8.183l0,0    l-10.542-28.336c-12.753,6.138-18.862,21.859-13.652,35.97c5.436,14.71,21.147,22.181,35.024,16.652    c6.626-2.637,11.882-7.836,14.799-14.635c2.761-6.434,3.131-13.572,1.104-20.301l-0.775,0.311    C146.882,35.717,147.087,37.08,147.087,38.489z"/>
		<path fill="#E30613" d="M149.374,29.277l0.051-0.02l0,0l0.521-0.208L139.214,0l-27.375,10.904l0.249,0.678    C126.825,6.734,142.914,14.368,149.374,29.277z"/>
	</g>
</g>
<g>
	<path fill="#373636" d="M23.039,107.583c-0.569,1.194-1.381,2.194-2.438,3.001c-1.057,0.809-2.345,1.422-3.866,1.844   s-3.234,0.634-5.137,0.634c-1.022,0-2.038-0.044-3.048-0.128c-1.009-0.084-2.014-0.21-3.012-0.38   c-0.232-0.047-0.435-0.084-0.609-0.108c-0.174-0.024-0.354-0.06-0.54-0.107v0.035c-0.674-0.121-1.248-0.234-1.724-0.344   c-0.476-0.108-0.842-0.186-1.097-0.235c-0.209-0.047-0.395-0.168-0.558-0.361c-0.163-0.192-0.256-0.397-0.278-0.614l-0.557-6.871   c-0.048-0.457,0.092-0.8,0.417-1.03c0.324-0.229,0.684-0.247,1.08-0.055c1.137,0.579,2.716,1.243,4.736,1.99   c2.09,0.723,3.982,1.085,5.677,1.085c1.044,0,1.886-0.133,2.525-0.398c0.638-0.265,0.958-0.651,0.958-1.157   c0-0.265-0.186-0.529-0.557-0.796c-0.604-0.385-1.974-0.794-4.11-1.229c-4.017-0.843-6.803-1.94-8.359-3.29   C0.848,97.62,0,95.595,0,92.992c0-3.038,1.039-5.339,3.118-6.906c2.078-1.567,4.975-2.35,8.689-2.35   c1.625,0,3.355,0.168,5.19,0.506c0.882,0.169,1.654,0.325,2.316,0.47c0.661,0.145,1.212,0.29,1.654,0.434   c0.186,0.049,0.354,0.169,0.505,0.361c0.15,0.193,0.237,0.387,0.261,0.579l0.696,6.328c0.047,0.458-0.093,0.814-0.418,1.068   c-0.326,0.252-0.685,0.27-1.079,0.053c-0.72-0.361-1.475-0.699-2.264-1.011c-0.79-0.314-1.614-0.603-2.473-0.869   c-1.718-0.506-3.262-0.76-4.632-0.76c-1.044,0-1.851,0.085-2.42,0.254c-0.569,0.169-0.854,0.458-0.854,0.867   c0,0.387,0.291,0.688,0.871,0.905c0.534,0.192,1.184,0.403,1.95,0.632c0.766,0.23,1.672,0.44,2.717,0.633   c3.761,0.772,6.338,1.88,7.731,3.327c1.556,1.543,2.333,3.52,2.333,5.93C23.892,105.01,23.607,106.389,23.039,107.583z"/>
	<path fill="#373636" d="M50.5,112.627c-0.163,0-0.343-0.061-0.54-0.181c-0.198-0.121-0.332-0.265-0.401-0.434l-1.776-3.544H34.724   l-1.776,3.544c-0.093,0.169-0.233,0.313-0.418,0.434s-0.371,0.181-0.557,0.181h-7.209c-0.465,0-0.801-0.168-1.01-0.506   c-0.209-0.338-0.198-0.712,0.036-1.121l14.313-26.145c0.07-0.145,0.209-0.277,0.418-0.397c0.208-0.121,0.382-0.181,0.522-0.181   h6.164c0.163,0,0.337,0.061,0.523,0.181c0.186,0.12,0.324,0.265,0.418,0.435l13.478,26.144c0.185,0.409,0.185,0.776,0,1.103   c-0.187,0.325-0.511,0.488-0.976,0.488H50.5z M38.137,102.104h6.478l-3.134-6.292L38.137,102.104z"/>
	<path fill="#373636" d="M69.968,104.238h13.165c0.279,0,0.527,0.102,0.749,0.307c0.22,0.206,0.331,0.465,0.331,0.777v6.22   c0,0.289-0.104,0.543-0.313,0.759c-0.208,0.217-0.453,0.326-0.731,0.326H61.4c-0.302,0-0.557-0.108-0.766-0.326   c-0.209-0.216-0.314-0.471-0.314-0.759v-26.18c0-0.289,0.099-0.542,0.296-0.76c0.197-0.217,0.446-0.325,0.749-0.325h7.558   c0.278,0,0.527,0.108,0.749,0.325c0.22,0.217,0.33,0.471,0.33,0.76L69.968,104.238z"/>
	<path fill="#373636" d="M112.388,109.445c-2.764,2.411-6.837,3.617-12.225,3.617c-5.387,0-9.461-1.206-12.225-3.617   c-2.763-2.41-4.144-6.087-4.144-11.029s1.381-8.625,4.144-11.047c2.764-2.422,6.838-3.633,12.225-3.633   c5.387,0,9.461,1.211,12.225,3.633c2.763,2.423,4.145,6.105,4.145,11.047S115.151,107.035,112.388,109.445z M105.161,93.733   c-1.149-1.048-2.816-1.572-4.998-1.572s-3.843,0.524-4.979,1.572c-1.138,1.05-1.707,2.611-1.707,4.683   c0,2.074,0.569,3.635,1.707,4.683c1.137,1.048,2.797,1.574,4.979,1.574s3.849-0.525,4.998-1.574   c1.149-1.048,1.724-2.609,1.724-4.683C106.885,96.344,106.311,94.783,105.161,93.733z"/>
	<path fill="#373636" d="M135.617,95.831c0.65,0.928,1.312,1.875,1.985,2.839V85.362c0-0.289,0.105-0.542,0.313-0.76   c0.209-0.217,0.464-0.325,0.767-0.325h6.791c0.302,0,0.557,0.108,0.767,0.325c0.209,0.217,0.313,0.471,0.313,0.76v26.18   c0,0.289-0.104,0.543-0.313,0.759c-0.209,0.217-0.464,0.326-0.767,0.326h-7.801c-0.117,0-0.267-0.042-0.453-0.126   c-0.187-0.084-0.325-0.186-0.417-0.308l-9.822-13.74v13.09c0,0.289-0.104,0.543-0.313,0.759c-0.209,0.217-0.464,0.326-0.767,0.326   h-6.791c-0.278,0-0.522-0.108-0.731-0.326c-0.209-0.216-0.314-0.471-0.314-0.759v-26.18c0-0.289,0.104-0.542,0.314-0.76   c0.209-0.217,0.453-0.325,0.731-0.325h7.732c0.139,0,0.307,0.048,0.504,0.145c0.197,0.097,0.319,0.205,0.366,0.325   c1.021,1.447,2.014,2.852,2.979,4.214c0.962,1.362,1.943,2.729,2.942,4.104C134.305,93.981,134.966,94.903,135.617,95.831z"/>
</g>
<path fill="#E30613" d="M157.35,108.235c0-0.097,0.041-0.236,0.123-0.417c0.081-0.182,0.157-0.309,0.227-0.381l9.753-9.401h-0.035  c0.537-0.556,1.142-1.294,1.818-2.214c0.466-0.628,0.699-1.258,0.699-1.887c0-0.774-0.239-1.379-0.716-1.815  c-0.478-0.436-1.136-0.653-1.975-0.653c-1.376,0-2.762,0.496-4.161,1.488c-1.469,1.041-2.471,1.924-3.006,2.65  c-0.14,0.217-0.321,0.357-0.542,0.417c-0.222,0.06-0.426,0.055-0.612-0.018c-0.187-0.073-0.35-0.2-0.49-0.381  c-0.139-0.182-0.209-0.405-0.209-0.672v-6.715c0-0.121,0.034-0.272,0.104-0.454c0.07-0.181,0.14-0.296,0.209-0.345  c0.326-0.338,0.827-0.695,1.504-1.071c0.675-0.375,1.538-0.792,2.587-1.252c2.12-0.895,4.288-1.343,6.502-1.343  c2.982,0,5.372,0.69,7.167,2.069c1.958,1.452,2.937,3.473,2.937,6.063c0,2.371-0.851,4.609-2.552,6.715  c-0.816,1.017-1.544,1.894-2.185,2.631c-0.641,0.739-1.194,1.35-1.661,1.833v-0.036c-0.279,0.314-0.554,0.599-0.822,0.854  c-0.268,0.254-0.53,0.514-0.786,0.78h7.167c0.279,0,0.524,0.109,0.734,0.327c0.209,0.218,0.314,0.484,0.314,0.798v5.844  c0,0.29-0.104,0.544-0.314,0.762c-0.21,0.218-0.455,0.327-0.734,0.327h-19.998c-0.28,0-0.524-0.109-0.734-0.327  c-0.209-0.218-0.314-0.472-0.314-0.762V108.235z"/>
<path fill="#E30613" d="M201.714,109.505v-0.036c-1.818,2.468-4.824,3.703-9.02,3.703c-4.148,0-7.155-1.235-9.019-3.703  c-0.886-1.186-1.556-2.692-2.011-4.52s-0.682-3.987-0.682-6.479c0-4.985,0.897-8.663,2.692-11.035  c1.84-2.468,4.847-3.702,9.019-3.702s7.179,1.246,9.02,3.738v-0.036c1.795,2.348,2.692,6.025,2.692,11.035  C204.406,103.456,203.509,107.134,201.714,109.505z M194.967,92.445c-0.209-0.653-0.967-0.98-2.272-0.98  c-1.352,0-2.109,0.327-2.272,0.98c-0.303,1.016-0.455,3.025-0.455,6.026c0,1.476,0.041,2.722,0.122,3.738  c0.082,1.017,0.193,1.779,0.333,2.287c0.209,0.654,0.967,0.98,2.272,0.98s2.063-0.327,2.272-0.98c0.326-1.064,0.49-3.072,0.49-6.025  C195.457,95.543,195.293,93.534,194.967,92.445z"/>
<path fill="#E30613" d="M205.944,108.235c0-0.097,0.041-0.236,0.123-0.417c0.081-0.182,0.157-0.309,0.227-0.381l9.753-9.401h-0.035  c0.536-0.556,1.142-1.294,1.818-2.214c0.466-0.628,0.699-1.258,0.699-1.887c0-0.774-0.24-1.379-0.716-1.815  c-0.479-0.436-1.136-0.653-1.975-0.653c-1.376,0-2.763,0.496-4.161,1.488c-1.469,1.041-2.471,1.924-3.007,2.65  c-0.14,0.217-0.321,0.357-0.542,0.417c-0.222,0.06-0.425,0.055-0.611-0.018c-0.187-0.073-0.35-0.2-0.49-0.381  c-0.14-0.182-0.209-0.405-0.209-0.672v-6.715c0-0.121,0.035-0.272,0.104-0.454c0.07-0.181,0.14-0.296,0.21-0.345  c0.326-0.338,0.827-0.695,1.503-1.071c0.675-0.375,1.538-0.792,2.587-1.252c2.121-0.895,4.288-1.343,6.502-1.343  c2.983,0,5.372,0.69,7.167,2.069c1.958,1.452,2.937,3.473,2.937,6.063c0,2.371-0.852,4.609-2.552,6.715  c-0.816,1.017-1.544,1.894-2.186,2.631c-0.641,0.739-1.194,1.35-1.66,1.833v-0.036c-0.28,0.314-0.554,0.599-0.822,0.854  c-0.268,0.254-0.53,0.514-0.786,0.78h7.167c0.279,0,0.524,0.109,0.733,0.327c0.21,0.218,0.314,0.484,0.314,0.798v5.844  c0,0.29-0.104,0.544-0.314,0.762c-0.209,0.218-0.455,0.327-0.733,0.327h-19.998c-0.28,0-0.524-0.109-0.734-0.327  c-0.209-0.218-0.314-0.472-0.314-0.762V108.235z"/>
<path fill="#E30613" d="M250.309,109.505v-0.036c-1.818,2.468-4.824,3.703-9.021,3.703c-4.148,0-7.155-1.235-9.019-3.703  c-0.886-1.186-1.556-2.692-2.01-4.52s-0.682-3.987-0.682-6.479c0-4.985,0.897-8.663,2.692-11.035  c1.841-2.468,4.847-3.702,9.019-3.702c4.172,0,7.178,1.246,9.021,3.738v-0.036c1.794,2.348,2.691,6.025,2.691,11.035  C253,103.456,252.103,107.134,250.309,109.505z M243.561,92.445c-0.209-0.653-0.967-0.98-2.272-0.98  c-1.352,0-2.109,0.327-2.272,0.98c-0.303,1.016-0.455,3.025-0.455,6.026c0,1.476,0.041,2.722,0.122,3.738s0.192,1.779,0.333,2.287  c0.21,0.654,0.966,0.98,2.272,0.98s2.063-0.327,2.272-0.98c0.326-1.064,0.489-3.072,0.489-6.025  C244.05,95.543,243.887,93.534,243.561,92.445z"/>
<g>
	<path d="M4.875,121.195c0,0.388-0.092,0.66-0.276,0.814c-0.185,0.154-0.466,0.231-0.846,0.231c-0.42,0-0.706-0.09-0.857-0.271   c-0.151-0.181-0.227-0.439-0.227-0.774c0-0.373,0.082-0.64,0.246-0.802c0.164-0.162,0.443-0.243,0.837-0.243   c0.4,0,0.687,0.079,0.861,0.235C4.788,120.542,4.875,120.812,4.875,121.195z M2.776,131.848v-8.371h1.983v8.371H2.776z"/>
	<path d="M13.45,131.848v-4.612c0-0.873-0.076-1.455-0.227-1.748c-0.151-0.292-0.437-0.439-0.857-0.439   c-0.589,0-1.299,0.404-2.129,1.213v5.586H8.255v-8.371h1.983v1.085c0.42-0.436,0.869-0.766,1.345-0.989   c0.477-0.224,0.943-0.335,1.399-0.335c0.825,0,1.44,0.234,1.845,0.702c0.404,0.468,0.607,1.242,0.607,2.322v5.586H13.45z"/>
	<path d="M23.325,131.848c-0.533,0.165-1.094,0.247-1.683,0.247c-0.933,0-1.604-0.218-2.014-0.654   c-0.41-0.436-0.615-1.144-0.615-2.123v-4.205h-1.022v-1.636h1.022v-2.33h1.983v2.33h1.875v1.636h-1.875v3.942   c0,0.521,0.078,0.875,0.234,1.062c0.156,0.186,0.378,0.279,0.665,0.279c0.364,0,0.725-0.077,1.084-0.231L23.325,131.848z"/>
	<path d="M27.289,128.201c0.036,0.745,0.21,1.28,0.522,1.604c0.313,0.325,0.805,0.487,1.476,0.487c0.39,0,0.731-0.05,1.026-0.151   c0.294-0.101,0.552-0.295,0.772-0.583l1.476,1.093c-0.323,0.484-0.741,0.846-1.256,1.085s-1.218,0.359-2.11,0.359   c-1.327,0-2.317-0.361-2.97-1.085s-0.98-1.817-0.98-3.28c0-2.995,1.292-4.492,3.874-4.492c1.147,0,2.022,0.336,2.625,1.009   s0.903,1.653,0.903,2.94v1.013H27.289z M30.678,126.781c0-1.271-0.535-1.907-1.606-1.907c-0.354,0-0.643,0.063-0.869,0.188   s-0.406,0.311-0.542,0.559c-0.136,0.247-0.242,0.634-0.319,1.161H30.678z"/>
	<path d="M40.561,125.488c-0.205-0.106-0.477-0.16-0.815-0.16c-0.369,0-0.718,0.092-1.049,0.275s-0.67,0.451-1.019,0.802v5.442   h-1.982v-8.371h1.982v1.197c0.338-0.383,0.702-0.7,1.091-0.95c0.39-0.25,0.825-0.375,1.307-0.375c0.41,0,0.702,0.056,0.876,0.167   L40.561,125.488z"/>
	<path d="M45.509,132.207c0,1-0.215,1.716-0.646,2.146c-0.43,0.431-1.135,0.646-2.113,0.646c-0.22,0-0.51-0.025-0.869-0.076   c-0.358-0.051-0.635-0.105-0.83-0.164l0.431-1.788c0.374,0.154,0.761,0.231,1.16,0.231c0.4,0,0.647-0.128,0.742-0.383   c0.095-0.255,0.143-0.679,0.143-1.269v-8.075h1.982V132.207z M45.617,121.195c0,0.388-0.092,0.66-0.277,0.814   s-0.464,0.231-0.838,0.231c-0.42,0-0.707-0.09-0.86-0.271c-0.154-0.181-0.231-0.439-0.231-0.774c0-0.373,0.082-0.64,0.246-0.802   c0.164-0.162,0.446-0.243,0.845-0.243c0.4,0,0.686,0.079,0.857,0.235C45.531,120.542,45.617,120.812,45.617,121.195z"/>
	<path d="M54.131,131.848v-1.077c-0.349,0.388-0.775,0.706-1.28,0.953c-0.505,0.248-0.99,0.371-1.457,0.371   c-0.912,0-1.55-0.262-1.914-0.786s-0.545-1.27-0.545-2.238v-5.594h1.982v4.612c0,0.59,0.034,1.042,0.1,1.356   s0.175,0.531,0.327,0.65s0.373,0.179,0.665,0.179c0.589,0,1.296-0.401,2.122-1.205v-5.594h1.982v8.371H54.131z"/>
	<path d="M64.474,125.488c-0.205-0.106-0.477-0.16-0.815-0.16c-0.369,0-0.719,0.092-1.049,0.275   c-0.331,0.184-0.67,0.451-1.019,0.802v5.442h-1.983v-8.371h1.983v1.197c0.338-0.383,0.702-0.7,1.091-0.95   c0.39-0.25,0.825-0.375,1.307-0.375c0.41,0,0.702,0.056,0.876,0.167L64.474,125.488z"/>
	<path d="M71.927,131.848v-0.87c-0.784,0.745-1.624,1.117-2.521,1.117c-0.892,0-1.565-0.243-2.021-0.73s-0.684-1.11-0.684-1.871   c0-0.596,0.117-1.088,0.35-1.476c0.233-0.389,0.579-0.693,1.037-0.914c0.459-0.221,1.119-0.376,1.979-0.467l1.699-0.167v-0.375   c0-0.468-0.136-0.789-0.407-0.961c-0.272-0.173-0.669-0.259-1.191-0.259c-0.43,0-0.801,0.074-1.11,0.223   c-0.31,0.149-0.54,0.362-0.688,0.639l-1.545-1.029c0.271-0.474,0.697-0.837,1.276-1.089c0.579-0.253,1.278-0.379,2.098-0.379   c1.255,0,2.161,0.227,2.717,0.682c0.556,0.455,0.834,1.201,0.834,2.238v5.689H71.927z M71.766,127.962l-1.007,0.096   c-0.712,0.064-1.226,0.205-1.541,0.423c-0.315,0.218-0.473,0.545-0.473,0.982c0,0.383,0.103,0.645,0.308,0.786   c0.205,0.141,0.477,0.211,0.814,0.211c0.241,0,0.534-0.078,0.88-0.235c0.346-0.157,0.686-0.379,1.019-0.666V127.962z"/>
	<path d="M83.339,129.462c0,0.553-0.134,1.026-0.403,1.42c-0.269,0.394-0.651,0.694-1.145,0.902   c-0.495,0.208-1.06,0.311-1.695,0.311c-1.686,0-2.833-0.486-3.443-1.46l1.476-1.077c0.241,0.34,0.519,0.568,0.833,0.682   c0.315,0.114,0.652,0.171,1.011,0.171c0.943,0,1.414-0.285,1.414-0.854c0-0.25-0.133-0.443-0.399-0.579   c-0.267-0.136-0.684-0.275-1.253-0.419c-1.071-0.245-1.824-0.59-2.259-1.038c-0.436-0.447-0.653-1.026-0.653-1.739   c0-0.74,0.273-1.349,0.818-1.828c0.546-0.479,1.349-0.718,2.41-0.718c0.722,0,1.359,0.12,1.91,0.359s0.975,0.599,1.272,1.077   l-1.483,1.093c-0.354-0.564-0.93-0.846-1.729-0.846c-0.41,0-0.72,0.073-0.93,0.219c-0.21,0.146-0.315,0.334-0.315,0.563   c0,0.218,0.095,0.393,0.284,0.523s0.563,0.267,1.122,0.411c0.917,0.234,1.572,0.467,1.964,0.698   c0.392,0.231,0.689,0.519,0.891,0.862C83.238,128.541,83.339,128.962,83.339,129.462z"/>
	<path d="M92.483,129.462c0,0.553-0.135,1.026-0.404,1.42c-0.269,0.394-0.65,0.694-1.145,0.902   c-0.494,0.208-1.059,0.311-1.694,0.311c-1.686,0-2.833-0.486-3.443-1.46l1.476-1.077c0.241,0.34,0.519,0.568,0.834,0.682   s0.652,0.171,1.011,0.171c0.942,0,1.414-0.285,1.414-0.854c0-0.25-0.133-0.443-0.4-0.579c-0.266-0.136-0.684-0.275-1.252-0.419   c-1.071-0.245-1.824-0.59-2.26-1.038c-0.436-0.447-0.653-1.026-0.653-1.739c0-0.74,0.273-1.349,0.819-1.828   c0.545-0.479,1.349-0.718,2.409-0.718c0.723,0,1.359,0.12,1.91,0.359s0.975,0.599,1.272,1.077l-1.483,1.093   c-0.354-0.564-0.93-0.846-1.729-0.846c-0.41,0-0.72,0.073-0.93,0.219c-0.21,0.146-0.315,0.334-0.315,0.563   c0,0.218,0.095,0.393,0.285,0.523c0.189,0.13,0.563,0.267,1.122,0.411c0.917,0.234,1.571,0.467,1.963,0.698   s0.689,0.519,0.892,0.862C92.382,128.541,92.483,128.962,92.483,129.462z"/>
	<path d="M97.57,121.195c0,0.388-0.092,0.66-0.277,0.814s-0.466,0.231-0.845,0.231c-0.42,0-0.706-0.09-0.857-0.271   c-0.151-0.181-0.227-0.439-0.227-0.774c0-0.373,0.082-0.64,0.246-0.802c0.164-0.162,0.443-0.243,0.838-0.243   c0.399,0,0.687,0.079,0.861,0.235C97.482,120.542,97.57,120.812,97.57,121.195z M95.472,131.848v-8.371h1.983v8.371H95.472z"/>
	<path d="M102.587,128.201c0.036,0.745,0.21,1.28,0.522,1.604c0.313,0.325,0.805,0.487,1.476,0.487c0.39,0,0.731-0.05,1.026-0.151   c0.294-0.101,0.552-0.295,0.772-0.583l1.476,1.093c-0.323,0.484-0.741,0.846-1.256,1.085s-1.218,0.359-2.109,0.359   c-1.327,0-2.317-0.361-2.971-1.085s-0.98-1.817-0.98-3.28c0-2.995,1.292-4.492,3.874-4.492c1.148,0,2.022,0.336,2.625,1.009   s0.903,1.653,0.903,2.94v1.013H102.587z M105.976,126.781c0-1.271-0.535-1.907-1.606-1.907c-0.354,0-0.643,0.063-0.869,0.188   s-0.406,0.311-0.542,0.559c-0.136,0.247-0.242,0.634-0.319,1.161H105.976z"/>
	<path d="M116.189,131.848v-4.612c0-0.873-0.076-1.455-0.227-1.748c-0.151-0.292-0.437-0.439-0.857-0.439   c-0.589,0-1.299,0.404-2.129,1.213v5.586h-1.982v-8.371h1.982v1.085c0.42-0.436,0.869-0.766,1.345-0.989   c0.477-0.224,0.943-0.335,1.398-0.335c0.825,0,1.44,0.234,1.845,0.702c0.405,0.468,0.607,1.242,0.607,2.322v5.586H116.189z"/>
	<path d="M131.918,131.848v-0.83c-0.302,0.303-0.666,0.559-1.091,0.766s-0.878,0.311-1.36,0.311c-0.968,0-1.716-0.379-2.244-1.137   c-0.527-0.758-0.792-1.834-0.792-3.228c0-1.367,0.287-2.458,0.861-3.271s1.368-1.221,2.382-1.221c0.815,0,1.563,0.308,2.244,0.925   v-4.197h1.33v11.882H131.918z M131.918,125.361c-0.702-0.602-1.394-0.902-2.075-0.902c-0.6,0-1.09,0.262-1.472,0.786   c-0.382,0.524-0.573,1.342-0.573,2.454c0,2.112,0.64,3.168,1.921,3.168c0.42,0,0.821-0.109,1.203-0.327   c0.382-0.218,0.713-0.468,0.995-0.75V125.361z"/>
	<path d="M138.081,127.826c0,1.106,0.182,1.896,0.545,2.366s0.948,0.706,1.752,0.706c0.359,0,0.674-0.079,0.945-0.235   s0.533-0.411,0.784-0.762l1.091,0.702c-0.307,0.479-0.681,0.847-1.122,1.105c-0.44,0.258-1.037,0.387-1.791,0.387   c-1.199,0-2.094-0.361-2.686-1.085s-0.888-1.817-0.888-3.28c0-1.532,0.288-2.664,0.865-3.395c0.576-0.731,1.446-1.097,2.609-1.097   c1.045,0,1.829,0.313,2.352,0.938s0.784,1.586,0.784,2.884v0.766H138.081z M142.031,126.749c-0.01-0.75-0.163-1.333-0.457-1.748   c-0.295-0.415-0.772-0.623-1.434-0.623c-0.63,0-1.103,0.188-1.418,0.563c-0.315,0.375-0.524,0.978-0.626,1.807H142.031z"/>
	<path d="M152.258,131.848v-11.882h1.322v11.882H152.258z"/>
	<path d="M162.094,131.848v-1.045c-0.41,0.373-0.822,0.681-1.237,0.926s-0.884,0.367-1.406,0.367c-0.769,0-1.362-0.243-1.779-0.73   s-0.626-1.11-0.626-1.871c0-0.575,0.108-1.052,0.326-1.433s0.533-0.681,0.945-0.901c0.413-0.221,1.011-0.379,1.795-0.475   l1.982-0.184v-0.407c0-0.644-0.173-1.083-0.519-1.316c-0.346-0.234-0.824-0.351-1.433-0.351c-0.543,0-0.962,0.098-1.257,0.295   s-0.506,0.41-0.634,0.639l-1.084-0.687c0.246-0.463,0.622-0.818,1.126-1.065c0.505-0.247,1.131-0.371,1.879-0.371   c1.158,0,1.988,0.218,2.49,0.654c0.502,0.436,0.753,1.191,0.753,2.266v5.689H162.094z M162.094,127.603l-1.291,0.127   c-0.876,0.08-1.494,0.257-1.852,0.531c-0.359,0.274-0.538,0.674-0.538,1.201c0,0.5,0.121,0.859,0.361,1.077   c0.241,0.218,0.602,0.327,1.083,0.327c0.2,0,0.397-0.039,0.592-0.116s0.387-0.173,0.577-0.288c0.189-0.114,0.373-0.245,0.549-0.391   c0.177-0.146,0.35-0.289,0.519-0.427V127.603z"/>
	<path d="M176.625,121.211c-0.149-0.08-0.336-0.149-0.561-0.208c-0.226-0.059-0.428-0.088-0.607-0.088   c-0.446,0-0.755,0.118-0.93,0.355s-0.261,0.701-0.261,1.393v0.814h1.791v1.149h-1.791v7.222h-1.322v-7.222h-1.183v-1.149h1.183   v-0.814c0-1.011,0.184-1.754,0.55-2.23s1.011-0.714,1.933-0.714c0.579,0,1.099,0.104,1.561,0.311L176.625,121.211z"/>
	<path d="M185.546,127.683c0,1.452-0.301,2.551-0.903,3.295c-0.602,0.745-1.479,1.117-2.632,1.117s-2.034-0.368-2.644-1.105   c-0.609-0.737-0.915-1.839-0.915-3.308c0-1.495,0.306-2.609,0.918-3.343c0.612-0.734,1.492-1.101,2.64-1.101   c1.158,0,2.037,0.374,2.636,1.121C185.247,125.106,185.546,126.214,185.546,127.683z M184.178,127.683   c0-1.138-0.181-1.965-0.542-2.481c-0.361-0.516-0.903-0.774-1.625-0.774c-0.743,0-1.294,0.259-1.652,0.778   c-0.359,0.519-0.538,1.345-0.538,2.478c0,1.091,0.173,1.899,0.519,2.426c0.346,0.527,0.903,0.79,1.672,0.79   c0.732,0,1.277-0.261,1.633-0.782C184,129.595,184.178,128.784,184.178,127.683z"/>
	<path d="M193.369,124.834c-0.144-0.064-0.348-0.096-0.615-0.096c-0.395,0-0.775,0.094-1.141,0.283   c-0.367,0.189-0.793,0.536-1.28,1.042v5.785h-1.322v-8.371h1.322v1.356c0.369-0.388,0.757-0.733,1.165-1.033   c0.407-0.301,0.859-0.451,1.356-0.451c0.333,0,0.599,0.056,0.799,0.167L193.369,124.834z"/>
	<path d="M205.787,131.848v-4.932c0-0.83-0.031-1.377-0.092-1.644s-0.169-0.451-0.323-0.555s-0.387-0.156-0.699-0.156   c-0.267,0-0.566,0.099-0.899,0.295s-0.769,0.556-1.307,1.077v5.913h-1.322v-4.932c0-0.787-0.031-1.319-0.092-1.596   c-0.062-0.277-0.167-0.472-0.315-0.586c-0.148-0.115-0.379-0.172-0.692-0.172c-0.287,0-0.623,0.119-1.007,0.355   c-0.384,0.236-0.789,0.576-1.214,1.017v5.913h-1.322v-8.371h1.322v1.245c0.348-0.394,0.738-0.739,1.168-1.037   s0.892-0.447,1.383-0.447c0.543,0,0.978,0.13,1.303,0.391s0.542,0.676,0.649,1.245c0.42-0.463,0.848-0.851,1.284-1.165   c0.435-0.314,0.919-0.471,1.452-0.471c0.492,0,0.887,0.107,1.184,0.323c0.297,0.216,0.515,0.527,0.653,0.934   c0.138,0.407,0.208,0.996,0.208,1.768v5.586H205.787z"/>
	<path d="M215.5,131.848v-1.045c-0.41,0.373-0.822,0.681-1.237,0.926s-0.884,0.367-1.406,0.367c-0.769,0-1.362-0.243-1.779-0.73   s-0.626-1.11-0.626-1.871c0-0.575,0.109-1.052,0.327-1.433s0.533-0.681,0.945-0.901s1.011-0.379,1.794-0.475l1.983-0.184v-0.407   c0-0.644-0.173-1.083-0.519-1.316c-0.346-0.234-0.824-0.351-1.434-0.351c-0.543,0-0.962,0.098-1.256,0.295   c-0.295,0.197-0.506,0.41-0.634,0.639l-1.083-0.687c0.246-0.463,0.621-0.818,1.126-1.065c0.504-0.247,1.131-0.371,1.879-0.371   c1.158,0,1.988,0.218,2.49,0.654c0.502,0.436,0.753,1.191,0.753,2.266v5.689H215.5z M215.5,127.603l-1.291,0.127   c-0.876,0.08-1.494,0.257-1.852,0.531c-0.359,0.274-0.538,0.674-0.538,1.201c0,0.5,0.12,0.859,0.361,1.077   c0.241,0.218,0.602,0.327,1.083,0.327c0.2,0,0.397-0.039,0.592-0.116s0.387-0.173,0.576-0.288c0.19-0.114,0.373-0.245,0.55-0.391   c0.177-0.146,0.35-0.289,0.519-0.427V127.603z"/>
	<path d="M224.506,131.848c-0.512,0.165-1.02,0.247-1.521,0.247c-0.82,0-1.408-0.223-1.764-0.67   c-0.356-0.447-0.534-1.149-0.534-2.107v-4.692h-1.153v-1.149h1.153v-2.33h1.322v2.33h2.044v1.149h-2.044v4.429   c0,0.676,0.065,1.16,0.196,1.452c0.131,0.293,0.421,0.439,0.873,0.439c0.389,0,0.75-0.074,1.083-0.223L224.506,131.848z"/>
	<path d="M228.87,121.355c0,0.319-0.069,0.536-0.208,0.65c-0.138,0.114-0.359,0.171-0.661,0.171c-0.323,0-0.545-0.072-0.668-0.215   s-0.185-0.346-0.185-0.606c0-0.282,0.067-0.488,0.2-0.619c0.133-0.13,0.351-0.195,0.653-0.195c0.313,0,0.536,0.063,0.669,0.188   C228.803,120.854,228.87,121.063,228.87,121.355z M227.341,131.848v-8.371h1.322v8.371H227.341z"/>
	<path d="M239.221,127.683c0,1.452-0.301,2.551-0.903,3.295c-0.602,0.745-1.479,1.117-2.632,1.117s-2.034-0.368-2.644-1.105   c-0.61-0.737-0.915-1.839-0.915-3.308c0-1.495,0.306-2.609,0.918-3.343c0.612-0.734,1.492-1.101,2.64-1.101   c1.158,0,2.037,0.374,2.636,1.121C238.922,125.106,239.221,126.214,239.221,127.683z M237.854,127.683   c0-1.138-0.181-1.965-0.542-2.481s-0.903-0.774-1.625-0.774c-0.743,0-1.293,0.259-1.652,0.778   c-0.358,0.519-0.538,1.345-0.538,2.478c0,1.091,0.173,1.899,0.519,2.426c0.346,0.527,0.903,0.79,1.671,0.79   c0.733,0,1.277-0.261,1.633-0.782C237.675,129.595,237.854,128.784,237.854,127.683z"/>
	<path d="M247.751,131.848v-4.932c0-0.798-0.039-1.33-0.115-1.596c-0.077-0.266-0.203-0.459-0.377-0.579   c-0.174-0.12-0.428-0.18-0.761-0.18c-0.338,0-0.732,0.133-1.184,0.399c-0.451,0.266-0.886,0.591-1.306,0.974v5.913h-1.322v-8.371   h1.322v1.245c0.374-0.388,0.809-0.733,1.306-1.033c0.497-0.301,0.997-0.451,1.499-0.451c0.778,0,1.35,0.23,1.714,0.69   c0.363,0.46,0.545,1.238,0.545,2.334v5.586H247.751z"/>
</g>
</svg>